<svg version="1.1" id="Capa_1" xmlns="http://www.w3.org/2000/svg" xmlns:xlink="http://www.w3.org/1999/xlink" x="0px" y="0px"
	 viewBox="0 0 297.168 297.168" style="enable-background:new 0 0 297.168 297.168;" xml:space="preserve">
<g>
	<path style="fill:none;" d="M51.516,95.619c0-9.792-7.967-17.758-17.759-17.758C23.966,77.861,16,85.827,16,95.619
		c0,9.792,7.966,17.758,17.757,17.758C43.549,113.377,51.516,105.411,51.516,95.619z"/>
	<path style="fill:#FFBE00;" d="M279.153,194.414l-127.35-90.059c-0.167-0.101-0.33-0.209-0.49-0.322
		c-10.812-7.711-23.55-11.787-36.837-11.787c-35.031,0-63.531,28.501-63.531,63.533c0,35.029,28.5,63.527,63.531,63.527
		c15.01,0,31.906-3.915,49.796-8.06c20.137-4.665,40.96-9.49,61.96-9.49c16.886,0,31.766,3.167,45.219,9.653L279.153,194.414z"/>
	<path d="M293.786,185.165L160.584,90.969c-0.151-0.107-0.305-0.208-0.462-0.304c-13.436-9.435-29.205-14.419-45.646-14.419
		c-17.652,0-33.974,5.789-47.183,15.557C65.392,74.98,51.08,61.861,33.757,61.861C15.144,61.861,0,77.005,0,95.619
		c0,18.614,15.144,33.758,33.757,33.758c2.01,0,3.976-0.187,5.89-0.525c-3.037,8.414-4.701,17.479-4.701,26.928
		c0,43.852,35.678,79.527,79.531,79.527c16.839,0,34.601-4.115,53.407-8.473c19.261-4.462,39.178-9.077,58.349-9.077
		c17.248,0,31.907,3.801,44.816,11.619c1.957,1.186,4.329,1.477,6.512,0.799c2.185-0.677,3.976-2.256,4.92-4.34l13.974-30.836
		C298.037,191.506,296.918,187.38,293.786,185.165z M164.273,211.247c-17.89,4.145-34.786,8.06-49.796,8.06
		c-35.031,0-63.531-28.498-63.531-63.527c0-35.032,28.5-63.533,63.531-63.533c13.287,0,26.025,4.076,36.837,11.787
		c0.16,0.113,0.323,0.222,0.49,0.322l127.35,90.059l-7.702,16.996c-13.453-6.486-28.333-9.653-45.219-9.653
		C205.232,201.757,184.409,206.582,164.273,211.247z M16,95.619c0-9.792,7.966-17.758,17.757-17.758
		c9.792,0,17.759,7.966,17.759,17.758c0,9.792-7.967,17.758-17.759,17.758C23.966,113.377,16,105.411,16,95.619z"/>
</g>
</svg>